# xmcd
#
# Track frame offsets:
#	150
#	15604
#	26450
#	39942
#	53079
#	64690
#	77905
#	87770
#	97019
#	109663
#	127412
#
# Disc length: 1884 seconds
#
# Revision: 0
# Processed by: cddbd v1.5.2PL0 Copyright (c) Steve Scherf et al.
# Submitted via: dBpowerAMP V4.0
#
DISCID=87075a0b
DTITLE=The Master's Call - Little Mountain Church
DYEAR=1900
DGENRE=Country Gospel
TTITLE0=Little Mountain Church House
TTITLE1=Amazing Grace
TTITLE2=Remember The Cross
TTITLE3=I Saw The Light
TTITLE4=If We Forget God
TTITLE5=Love Lifted Me
TTITLE6=Something God A Hold Of Me
TTITLE7=Old Rugged Cross
TTITLE8=Wait A Little Longer, Please Jesus
TTITLE9=Who At My Door Is Standing
TTITLE10=Wings Of A Dove
EXTD=Country Gospel
EXTT0=
EXTT1=
EXTT2=
EXTT3=
EXTT4=
EXTT5=
EXTT6=
EXTT7=
EXTT8=
EXTT9=
EXTT10=
PLAYORDER=
